<?xml version="1.0" encoding="UTF-8" standalone="no"?><!DOCTYPE svg PUBLIC "-//W3C//DTD SVG 1.1//EN" "http://www.w3.org/Graphics/SVG/1.1/DTD/svg11.dtd"><svg width="100%" height="100%" viewBox="0 0 128 128" version="1.1" xmlns="http://www.w3.org/2000/svg" xmlns:xlink="http://www.w3.org/1999/xlink" xml:space="preserve" xmlns:serif="http://www.serif.com/" style="fill-rule:evenodd;clip-rule:evenodd;stroke-miterlimit:10;"><g><path d="M110.805,59.392c0,25.899 -20.992,46.848 -46.848,46.848c-25.898,0 -46.89,-20.992 -46.89,-46.848c0,-25.899 20.992,-46.891 46.848,-46.891c25.898,0 46.89,20.992 46.89,46.891" style="fill:#008cc1;fill-rule:nonzero;"/><path d="M37.845,44.032c0,2.091 -1.664,3.755 -3.754,3.755c-2.091,0 -3.755,-1.664 -3.755,-3.755c0,-2.091 1.664,-3.755 3.755,-3.755c2.09,0 3.754,1.664 3.754,3.755" style="fill:#fff;fill-rule:nonzero;"/><path d="M38.485,54.315c0,2.09 -1.664,3.754 -3.754,3.754c-2.091,0 -3.755,-1.664 -3.755,-3.754c0,-2.091 1.664,-3.755 3.755,-3.755c2.09,0 3.754,1.664 3.754,3.755" style="fill:#fff;fill-rule:nonzero;"/><path d="M40.789,65.195c0,2.09 -1.664,3.754 -3.754,3.754c-2.091,0 -3.755,-1.664 -3.755,-3.754c0,-2.091 1.664,-3.755 3.755,-3.755c2.048,0 3.754,1.664 3.754,3.755" style="fill:#fff;fill-rule:nonzero;"/><path d="M45.909,74.965c0,2.091 -1.664,3.755 -3.754,3.755c-2.091,0 -3.755,-1.664 -3.755,-3.755c0,-2.09 1.664,-3.754 3.755,-3.754c2.09,0 3.754,1.664 3.754,3.754" style="fill:#fff;fill-rule:nonzero;"/><path d="M86.016,88.619c0,2.09 -1.664,3.754 -3.755,3.754c-2.09,0 -3.754,-1.664 -3.754,-3.754c0,-2.091 1.664,-3.755 3.754,-3.755c2.091,0 3.755,1.664 3.755,3.755" style="fill:#fff;fill-rule:nonzero;"/><path d="M92.843,80.555c0,2.09 -1.664,3.754 -3.755,3.754c-2.091,0 -3.755,-1.664 -3.755,-3.754c0,-2.091 1.664,-3.755 3.755,-3.755c2.091,0 3.755,1.664 3.755,3.755" style="fill:#fff;fill-rule:nonzero;"/><path d="M73.088,23.552c0,2.091 -1.664,3.755 -3.755,3.755c-2.09,0 -3.754,-1.664 -3.754,-3.755c0,-2.091 1.664,-3.755 3.754,-3.755c2.091,0 3.755,1.707 3.755,3.755" style="fill:#fff;fill-rule:nonzero;"/><path d="M63.232,20.096c0,2.091 -1.664,3.755 -3.755,3.755c-2.09,0 -3.754,-1.664 -3.754,-3.755c0,-2.091 1.664,-3.755 3.754,-3.755c2.091,0 3.755,1.707 3.755,3.755" style="fill:#fff;fill-rule:nonzero;"/><circle cx="89.813" cy="48.213" r="24.96" style="fill:#66b245;stroke:#fff;stroke-width:1.49px;"/><circle cx="55.595" cy="99.115" r="20.437" style="fill:#66b245;stroke:#fff;stroke-width:1.49px;"/><circle cx="38.784" cy="23.125" r="13.611" style="fill:#66b245;stroke:#fff;stroke-width:1.49px;"/></g></svg>